<svg xmlns="http://www.w3.org/2000/svg" xmlns:xlink="http://www.w3.org/1999/xlink" width="64" height="64" version="1.1" viewBox="0 0 64 64"><title>Group 3</title><desc>Created with Sketch.</desc><defs><linearGradient id="linearGradient-1" x1="0%" x2="100%" y1="49.999%" y2="49.999%"><stop offset="0%" stop-color="#FFC400"/><stop offset="13.695%" stop-color="#FECD00"/><stop offset="36.528%" stop-color="#FED400"/><stop offset="100%" stop-color="#FED600"/></linearGradient><linearGradient id="linearGradient-2" x1="-92.618%" x2="100%" y1="50.001%" y2="50.001%"><stop offset="0%" stop-color="#FF0" stop-opacity=".7"/><stop offset="13.194%" stop-color="#FFF600" stop-opacity=".66"/><stop offset="31.385%" stop-color="#FEEF00" stop-opacity=".626"/><stop offset="54.652%" stop-color="#FEEA00" stop-opacity=".606"/><stop offset="100%" stop-color="#FEE900" stop-opacity=".6"/></linearGradient></defs><g id="Page-1" fill="none" fill-rule="evenodd" stroke="none" stroke-width="1"><g id="Design---Desktop-Landscape" transform="translate(-115.000000, -2421.000000)"><g id="Group-5" transform="translate(115.000000, 2421.000000)"><g id="Group-3"><circle id="Oval-2" cx="32" cy="32" r="32" fill="#FFF"/><g id="beam-logo-3-color-nameless" fill-rule="nonzero" transform="translate(20.425532, 15.659574)"><g id="Layer_1"><polygon id="Shape" fill="#FEE900" points=".133 11.241 8.338 16.342 17.196 10.835 17.196 6.535 .133 1.237"/><polygon id="Shape" fill="#FFC400" points=".133 1.237 .133 11.241 .133 11.376 .133 21.442 17.196 10.835 17.196 6.535"/><polygon id="Shape" fill="url(#linearGradient-1)" points=".133 11.366 .133 21.432 8.338 16.332 .133 11.232" opacity=".75"/><polygon id="Shape" fill="#FFC400" points=".133 11.241 .133 21.442 .133 31.344 17.196 26.148 17.196 21.848"/><polygon id="Shape" fill="#FFE082" points=".057 23.073 .057 24.913 17.196 26.425 17.196 21.561"/><polygon id="Shape" fill="#FFE082" points="0 7.821 0 9.662 17.117 11.173 17.117 6.31"/><polygon id="Shape" fill="#FEE900" points=".133 1.237 17.196 6.535 17.196 6.535"/><polygon id="Shape" fill="url(#linearGradient-2)" points="8.338 16.342 17.196 10.835 8.338 16.342"/><path id="Shape" fill="#FFF" d="M15.246889,23.9931348 C15.2468836,24.5052527 15.4522753,24.9963971 15.8178793,25.3585192 C16.1834833,25.7206413 16.6793503,25.9240769 17.1963925,25.9240715 L17.1963925,22.0622003 C16.1197144,22.0622053 15.2468954,22.9267108 15.246889,23.9931348 Z"/><path id="Shape" fill="#FFF" d="M15.246889,8.74171234 C15.2468836,9.25383026 15.4522753,9.74497473 15.8178793,10.1070968 C16.1834833,10.4692188 16.6793503,10.6726545 17.1963925,10.6726491 L17.1963925,6.81078241 C16.1197162,6.81078742 15.2468979,7.67529016 15.246889,8.74171234 Z"/><path id="Shape" fill="#FF6D00" stroke="#FF6D00" stroke-width=".4" d="M23.3198573,20.6618576 C23.1011447,19.8865692 22.7536265,19.1527617 22.2915584,18.4905373 C21.8192278,17.821481 21.2298805,17.2414996 20.5513584,16.7779926 C19.7976452,16.2691723 18.9602397,15.8942247 18.0766602,15.6699484 C19.6434443,15.0134763 20.8337116,14.0882398 21.6474622,12.8942389 C22.4595056,11.7058093 22.8853345,10.2998971 22.8678612,8.8649827 C22.9013019,7.50750871 22.6352101,6.15916236 22.088162,4.91407433 C21.5868989,3.82507909 20.8128094,2.88113422 19.839455,2.17194213 C18.7591986,1.41022163 17.5382241,0.866395918 16.246056,0.571431489 C14.6765683,0.20354292 13.0675924,0.0268887702 11.4548619,0.0453923404 L0.177467758,0.0453923404 L0.177467758,1.30324652 L16.8798779,6.45739574 C17.0686231,6.51820458 17.1963929,6.69244842 17.1963925,6.88903716 L17.1963925,10.5826542 C17.1963925,10.7468816 17.1068293,10.8983004 16.9621938,10.9785986 L8.40479574,16.3415308 L16.9621938,21.7044857 C17.1068312,21.7847817 17.1963972,21.9361997 17.1963993,22.1004278 L17.1963993,25.7940448 C17.1963997,25.9906336 17.06863,26.1648774 16.8798848,26.2256862 L0.177467758,31.3798309 L0.177467758,32.6376987 L12.2458619,32.6376987 C13.8598743,32.6589296 15.4688959,32.4554785 17.0257597,32.0333095 C18.3347667,31.6807579 19.5574646,31.067577 20.6191588,30.2312261 C21.6046822,29.4346515 22.3802251,28.4130032 22.8791574,27.254055 C23.4228284,25.945127 23.6882512,24.539247 23.6588566,23.1241782 C23.6613753,22.2918257 23.5472879,21.463152 23.3198573,20.6618576 L23.3198573,20.6618576 Z"/></g></g></g></g></g></g></svg>