<svg xmlns="http://www.w3.org/2000/svg" xmlns:xlink="http://www.w3.org/1999/xlink" width="1158" height="207" version="1.1" viewBox="0 0 1158 207"><title>A pipeline with a transform that outputs multiple PCollections.</title><g id="design-your-pipeline-additional-outputs" transform="translate(0.000000, 1.000000)"><g id="Branch" fill="#FFF" stroke="#3062A8" stroke-width="2" transform="translate(676.000000, 32.000000)"><polyline id="Directed-edge" points="0 72 8.75 72 8.75 0 20 0"/><polyline id="Directed-edge" points="0 144 8.75 144 8.75 72 20 72" transform="translate(10.000000, 108.000000) scale(1, -1) translate(-10.000000, -108.000000)"/></g><g id="PCollection" transform="translate(696.000000, 143.000000)"><circle id="PCollection-symbol" cx="31" cy="31" r="31" fill="#FFF" stroke="#757575" stroke-width="2"/><text id="‘B’-names" fill="#000" font-family="Roboto-Regular, Roboto" font-size="16" font-weight="normal"><tspan x="23.324" y="22">‘B’ </tspan> <tspan x="7.359" y="41">names</tspan></text></g><g id="PCollection" transform="translate(696.000000, 0.000000)"><circle id="PCollection-symbol" cx="31" cy="31" r="31" fill="#FFF" stroke="#757575" stroke-width="2"/><text id="‘A’-names" fill="#000" font-family="Roboto-Regular, Roboto" font-size="16" font-weight="normal"><tspan x="23.086" y="22">‘A’ </tspan> <tspan x="7.359" y="41">names</tspan></text></g><g id="PTransform" transform="translate(482.000000, 40.000000)"><rect id="PTransform-symbol" width="194" height="124" x="0" y="0" fill="#3062A8"/><text id="ParDo" fill="#FFF" font-family="Roboto-Regular, Roboto" font-size="24" font-weight="normal"><tspan x="64" y="70">ParDo</tspan></text></g><g id="Directed-edge" transform="translate(353.000000, 102.500000)"><path id="Line" stroke="#3062A8" stroke-linecap="square" stroke-width="2" d="M11,-8.5 L11,11.5" transform="translate(11.000000, 1.500000) rotate(-90.000000) translate(-11.000000, -1.500000)"/><path id="Line" fill="#757575" fill-rule="nonzero" d="M115,2.5 L83,2.5 L83,0.5 L115,0.5 L115,-5.5 L129,1.5 L115,8.5 L115,2.5 Z"/></g><g id="PCollection" transform="translate(374.000000, 73.000000)"><circle id="PCollection-symbol" cx="31" cy="31" r="31" fill="#FFF" stroke="#757575" stroke-width="2"/><text id="Table-rows" fill="#000" font-family="Roboto-Regular, Roboto" font-size="16" font-weight="normal"><tspan x="11.207" y="28">Table </tspan> <tspan x="13.594" y="47">rows</tspan></text></g><g id="PTransform" transform="translate(160.000000, 42.000000)"><rect id="PTransform-symbol" width="194" height="124" x="0" y="0" fill="#3062A8"/><text id="Read-database-of-nam" fill="#FFF" font-family="Roboto-Regular, Roboto" font-size="24" font-weight="normal"><tspan x="33" y="42">Read </tspan> <tspan x="33" y="70">database of </tspan> <tspan x="33" y="98">names</tspan></text></g><path id="Directed-edge" fill="#E0E0E0" fill-rule="nonzero" d="M146,103.5 L113,103.5 L113,101.5 L146,101.5 L146,95.5 L160,102.5 L146,109.5 L146,103.5 Z"/><g id="Database" transform="translate(0.000000, 51.000000)"><g id="Database-symbol" transform="translate(0.000000, 0.000000)"><ellipse id="Oval" cx="56.5" cy="83.263" fill="#E0E0E0" rx="56.5" ry="17.842"/><rect id="Rectangle" width="113" height="65.421" x="0" y="17.842" fill="#E0E0E0"/><ellipse id="Oval" cx="56.5" cy="17.842" fill="#EFEFEF" rx="56.5" ry="17.842"/></g><text id="Database-table" fill="#414141" font-family="Roboto-Regular, Roboto" font-size="18" font-weight="normal"><tspan x="17" y="61">Database </tspan> <tspan x="17" y="82">table</tspan></text></g><g id="Legend" transform="translate(0.000000, 183.000000)"><text id="PCollection" fill="#000" font-family="Roboto-Regular, Roboto" font-size="18" font-weight="normal"><tspan x="155" y="17">PCollection</tspan></text><circle id="PCollection-symbol" cx="140.5" cy="10.5" r="7.5" fill="#FFF" stroke="#757575" stroke-width="2"/><text id="PTransform" fill="#000" font-family="Roboto-Regular, Roboto" font-size="18" font-weight="normal"><tspan x="22" y="17">PTransform</tspan></text><rect id="PTransform-symbol" width="15" height="15" x="0" y="3" fill="#3062A8"/></g></g></svg>