<svg xmlns="http://www.w3.org/2000/svg" xmlns:xlink="http://www.w3.org/1999/xlink" width="1158" height="163" version="1.1" viewBox="0 0 1158 163"><title>A simple, linear pipeline.</title><g id="design-your-pipeline-linear" transform="translate(0.000000, 0.000000)"><g id="Legend" transform="translate(0.000000, 143.000000)"><text id="PCollection" fill="#000" font-family="Roboto-Regular, Roboto" font-size="18" font-weight="normal"><tspan x="155" y="17">PCollection</tspan></text><circle id="PCollection-symbol" cx="140.5" cy="11.5" r="7.5" fill="#FFF" stroke="#757575" stroke-width="2"/><text id="PTransform" fill="#000" font-family="Roboto-Regular, Roboto" font-size="18" font-weight="normal"><tspan x="22" y="17">PTransform</tspan></text><rect id="PTransform-symbol" width="15" height="15" x="0" y="3" fill="#3062A8"/></g><path id="Directed-edge" fill="#E0E0E0" fill-rule="nonzero" d="M1031,63 L999,63 L999,61 L1031,61 L1031,55 L1045,62 L1031,69 L1031,63 Z"/><g id="Database" transform="translate(0.000000, 11.000000)"><g id="Database-symbol" transform="translate(0.000000, 0.000000)"><ellipse id="Oval" cx="56.5" cy="83.263" fill="#E0E0E0" rx="56.5" ry="17.842"/><rect id="Rectangle" width="113" height="65.421" x="0" y="17.842" fill="#E0E0E0"/><ellipse id="Oval" cx="56.5" cy="17.842" fill="#EFEFEF" rx="56.5" ry="17.842"/></g><text id="Database-table" fill="#414141" font-family="Roboto-Regular, Roboto" font-size="18" font-weight="normal"><tspan x="18" y="61">Database </tspan> <tspan x="18" y="82">table</tspan></text></g><g id="PTransform" transform="translate(805.000000, 0.000000)"><rect id="PTransform-symbol" width="194" height="124" x="0" y="0" fill="#3062A8"/><text id="Write-transform" fill="#FFF" font-family="Roboto-Regular, Roboto" font-size="24" font-weight="normal"><tspan x="44" y="56">Write </tspan> <tspan x="44" y="84">transform</tspan></text></g><g id="Directed-edge" transform="translate(675.500000, 60.500000)"><path id="Line" fill="#757575" fill-rule="nonzero" d="M115.5,2.5 L83.5,2.5 L83.5,0.5 L115.5,0.5 L115.5,-5.5 L129.5,1.5 L115.5,8.5 L115.5,2.5 Z"/><path id="Line" stroke="#3062A8" stroke-linecap="square" stroke-width="2" d="M11,-8.5 L11,11.5" transform="translate(11.000000, 1.500000) rotate(-90.000000) translate(-11.000000, -1.500000)"/></g><g id="PCollection" transform="translate(696.500000, 31.000000)"><circle id="PCollection-symbol" cx="31" cy="31" r="31" fill="#FFF" stroke="#757575" stroke-width="2"/><text id="PColl." fill="#000" font-family="Roboto-Regular, Roboto" font-size="16" font-weight="normal"><tspan x="10.695" y="36">PColl.</tspan></text></g><g id="PTransform" transform="translate(482.000000, 0.000000)"><path id="PTransform-symbol" fill="#3062A8" d="M0,0 L194,0 L194,124 L0,124 L0,0 Z"/><text id="Transform" fill="#FFF" font-family="Roboto-Regular, Roboto" font-size="24" font-weight="normal"><tspan x="41" y="70">Transform</tspan></text></g><g id="Directed-edge" transform="translate(353.000000, 60.500000)"><path id="Line" stroke="#3062A8" stroke-linecap="square" stroke-width="2" d="M11,-8.5 L11,11.5" transform="translate(11.000000, 1.500000) rotate(-90.000000) translate(-11.000000, -1.500000)"/><path id="Line" fill="#757575" fill-rule="nonzero" d="M115,2.5 L83,2.5 L83,0.5 L115,0.5 L115,-5.5 L129,1.5 L115,8.5 L115,2.5 Z"/></g><g id="PCollection" transform="translate(374.000000, 31.000000)"><circle id="PCollection-symbol" cx="31" cy="31" r="31" fill="#FFF" stroke="#757575" stroke-width="2"/><text id="PColl." fill="#000" font-family="Roboto-Regular, Roboto" font-size="16" font-weight="normal"><tspan x="10.195" y="36">PColl.</tspan></text></g><g id="PTransform" transform="translate(160.000000, 0.000000)"><rect id="PTransform-symbol" width="194" height="124" x="0" y="0" fill="#3062A8"/><text id="Read-transform" fill="#FFF" font-family="Roboto-Regular, Roboto" font-size="24" font-weight="normal"><tspan x="44" y="56">Read </tspan> <tspan x="44" y="84">transform</tspan></text></g><path id="Directed-edge" fill="#E0E0E0" fill-rule="nonzero" d="M146,63 L113,63 L113,61 L146,61 L146,55 L160,62 L146,69 L146,63 Z"/><g id="Database" transform="translate(1045.000000, 11.000000)"><g id="Database-symbol" transform="translate(0.000000, 0.000000)"><ellipse id="Oval" cx="56.5" cy="83.263" fill="#E0E0E0" rx="56.5" ry="17.842"/><rect id="Rectangle" width="113" height="65.421" x="0" y="17.842" fill="#E0E0E0"/><ellipse id="Oval" cx="56.5" cy="17.842" fill="#EFEFEF" rx="56.5" ry="17.842"/></g><text id="Database-table" fill="#414141" font-family="Roboto-Regular, Roboto" font-size="18" font-weight="normal"><tspan x="18" y="61">Database </tspan> <tspan x="18" y="82">table</tspan></text></g></g></svg>