<svg xmlns="http://www.w3.org/2000/svg" xmlns:xlink="http://www.w3.org/1999/xlink" width="1158" height="266" version="1.1" viewBox="0 0 1158 266"><title>A pipeline that merges two collections into one collection with the Flatten transform.</title><g id="design-your-pipeline-flatten"><path id="Directed-edge" stroke="#3062A8" stroke-linecap="square" stroke-width="2" d="M1012,121 L1012,141" transform="translate(1012.000000, 131.000000) rotate(-90.000000) translate(-1012.000000, -131.000000)"/><g id="PCollection" transform="translate(1024.000000, 97.000000)"><circle id="PCollection-symbol" cx="34.5" cy="34.5" r="34.5" fill="#FFF" stroke="#757575" stroke-width="2"/><text id="‘A’-+-‘B’-names" fill="#000" font-family="Roboto-Regular, Roboto" font-size="16" font-weight="normal"><tspan x="9.414" y="31">‘A’ + ‘B’ </tspan> <tspan x="10.359" y="50">names</tspan></text></g><g id="PTransform" transform="translate(808.000000, 70.000000)"><rect id="PTransform-symbol" width="194" height="124" x="0" y="0" fill="#3062A8"/><text id="Flatten" fill="#FFF" font-family="Roboto-Regular, Roboto" font-size="24" font-weight="normal"><tspan x="60" y="70">Flatten</tspan></text></g><g id="Merge" transform="translate(678.000000, 60.000000)"><path id="Directed-edge" fill="#757575" fill-rule="nonzero" d="M116,73 L105.125,73 L105.125,147 L84,147 L84,145 L103.125,145 L103.125,71 L116,71 L116,65 L130,72 L116,79 L116,73 Z"/><path id="Directed-edge" fill="#757575" fill-rule="nonzero" d="M116,73 L103.125,73 L103.125,2 L84,2 L84,0 L105.125,0 L105.125,71 L116,71 L116,65 L130,72 L116,79 L116,73 Z"/><path id="Line" stroke="#3062A8" stroke-linecap="square" stroke-width="2" d="M10,-9 L10,11" transform="translate(10.000000, 1.000000) rotate(-90.000000) translate(-10.000000, -1.000000)"/><path id="Line" stroke="#3062A8" stroke-linecap="square" stroke-width="2" d="M10,135 L10,155" transform="translate(10.000000, 145.000000) rotate(-90.000000) translate(-10.000000, -145.000000)"/></g><g id="PCollection" transform="translate(700.000000, 30.000000)"><circle id="PCollection-symbol" cx="31" cy="31" r="31" fill="#FFF" stroke="#757575" stroke-width="2"/><text id="‘A’-names" fill="#000" font-family="Roboto-Regular, Roboto" font-size="16" font-weight="normal"><tspan x="23.586" y="23">‘A’ </tspan> <tspan x="7.859" y="42">names</tspan></text></g><g id="PCollection" transform="translate(700.000000, 173.000000)"><circle id="PCollection-symbol" cx="31" cy="31" r="31" fill="#FFF" stroke="#757575" stroke-width="2"/><text id="‘B’-names" fill="#000" font-family="Roboto-Regular, Roboto" font-size="16" font-weight="normal"><tspan x="23.324" y="23">‘B’ </tspan> <tspan x="7.359" y="42">names</tspan></text></g><g id="PTransform" transform="translate(483.000000, 0.000000)"><rect id="PTransform-symbol" width="194" height="124" x="0" y="0" fill="#3062A8"/><text id="ParDo-(extract-strin" fill="#FFF" font-family="Roboto-Regular, Roboto" font-size="23" font-weight="normal"><tspan x="20" y="40">ParDo (extract </tspan> <tspan x="20" y="67">strings starting </tspan> <tspan x="20" y="94">with ‘A’)</tspan></text></g><g id="PTransform" transform="translate(483.000000, 142.000000)"><rect id="PTransform-symbol" width="194" height="124" x="0" y="0" fill="#3062A8"/><text id="ParDo-(extract-strin" fill="#FFF" font-family="Roboto-Regular, Roboto" font-size="23" font-weight="normal"><tspan x="20" y="43">ParDo (extract </tspan> <tspan x="20" y="70">strings starting </tspan> <tspan x="20" y="97">with ‘B’)</tspan></text></g><g id="Branch" transform="translate(353.000000, 61.000000)"><path id="Directed-edge" fill="#757575" fill-rule="nonzero" d="M115.983293,144.729332 L103.125,144.480863 L103.125,73 L84,73 L84,71 L105.125,71 L105.125,142.519137 L116.021933,142.729706 L116.137854,136.730826 L130,144 L115.867373,150.728213 L115.983293,144.729332 Z"/><path id="Directed-edge" fill="#757575" fill-rule="nonzero" d="M116,1 L105.125,1 L105.125,73 L84,73 L84,71 L103.125,71 L103.125,-1 L116,-1 L116,-7 L130,0 L116,7 L116,1 Z"/><path id="Line" stroke="#3062A8" stroke-linecap="square" stroke-width="2" d="M11,63 L11,83" transform="translate(11.000000, 73.000000) rotate(-90.000000) translate(-11.000000, -73.000000)"/></g><g id="PCollection" transform="translate(374.000000, 103.000000)"><circle id="PCollection-symbol" cx="31" cy="31" r="31" fill="#FFF" stroke="#757575" stroke-width="2"/><text id="Table-rows" fill="#000" font-family="Roboto-Regular, Roboto" font-size="16" font-weight="normal"><tspan x="11.207" y="27">Table </tspan> <tspan x="13.594" y="46">rows</tspan></text></g><g id="PTransform" transform="translate(160.000000, 72.000000)"><rect id="PTransform-symbol" width="194" height="124" x="0" y="0" fill="#3062A8"/><text id="Read-database-of-nam" fill="#FFF" font-family="Roboto-Regular, Roboto" font-size="24" font-weight="normal"><tspan x="17" y="56">Read database </tspan> <tspan x="17" y="84">of names</tspan></text></g><path id="Directed-edge" fill="#E0E0E0" fill-rule="nonzero" d="M146,133.5 L113,133.5 L113,131.5 L146,131.5 L146,125.5 L160,132.5 L146,139.5 L146,133.5 Z"/><g id="Database" transform="translate(0.000000, 82.000000)"><g id="Database-symbol"><ellipse id="Oval" cx="56.5" cy="84" fill="#E0E0E0" rx="56.5" ry="18"/><rect id="Rectangle" width="113" height="66" x="0" y="18" fill="#E0E0E0"/><ellipse id="Oval" cx="56.5" cy="18" fill="#EFEFEF" rx="56.5" ry="18"/></g><text id="Database-table" fill="#414141" font-family="Roboto-Regular, Roboto" font-size="18" font-weight="normal"><tspan x="22" y="61">Database </tspan> <tspan x="22" y="82">table</tspan></text></g><g id="Legend" transform="translate(0.000000, 214.000000)"><text id="PCollection" fill="#000" font-family="Roboto-Regular, Roboto" font-size="18" font-weight="normal"><tspan x="155" y="17">PCollection</tspan></text><circle id="PCollection-symbol" cx="140.5" cy="10.5" r="7.5" fill="#FFF" stroke="#757575" stroke-width="2"/><text id="PTransform" fill="#000" font-family="Roboto-Regular, Roboto" font-size="18" font-weight="normal"><tspan x="22" y="17">PTransform</tspan></text><rect id="PTransform-symbol" width="15" height="15" x="0" y="3" fill="#3062A8"/></g></g></svg>