<svg xmlns="http://www.w3.org/2000/svg" xmlns:xlink="http://www.w3.org/1999/xlink" width="1158" height="333" version="1.1" viewBox="0 0 1158 333"><title>A pipeline that does a relational join of two input collections.</title><g id="design-your-pipeline-join"><g id="PTransform" transform="translate(160.000000, 0.000000)"><rect id="PTransform-symbol" width="194" height="124" x="0" y="0" fill="#3062A8"/><text id="Read-from-database" fill="#FFF" font-family="Roboto-Regular, Roboto" font-size="24" font-weight="normal"><tspan x="41" y="55">Read from </tspan> <tspan x="41" y="83">database</tspan></text></g><g id="PTransform" transform="translate(160.000000, 142.000000)"><rect id="PTransform-symbol" width="194" height="124" x="0" y="0" fill="#3062A8"/><text id="Read-from-text-file" fill="#FFF" font-family="Roboto-Regular, Roboto" font-size="24" font-weight="normal"><tspan x="40" y="56">Read from </tspan> <tspan x="40" y="84">text file</tspan></text></g><g id="PTransform" transform="translate(496.000000, 39.725000)"><polygon id="Aggregation-PTransform-symbol" fill="#3062A8" points="128.814 0 261 91.733 128.814 184 0 92.267"/><text id="Join" fill="#FFF" font-family="Roboto-Regular, Roboto" font-size="28" font-weight="normal"><tspan x="98.169" y="101.275">Join</tspan></text></g><circle id="PCollection-symbol" cx="815" cy="131" r="37" fill="#FFF" stroke="#757575" stroke-width="2"/><circle id="PCollection-symbol" cx="413" cy="60" r="36" fill="#FFF" stroke="#757575" stroke-width="2"/><text id="Names-+-addrs." fill="#000" font-family="Roboto-Regular, Roboto" font-size="16" font-weight="normal"><tspan x="387.57" y="56">Names</tspan> <tspan x="384.172" y="75">+ addrs.</tspan></text><circle id="PCollection-symbol" cx="413" cy="205" r="36" fill="#FFF" stroke="#757575" stroke-width="2"/><text id="Names-+-orders" fill="#000" font-family="Roboto-Regular, Roboto" font-size="16" font-weight="normal"><tspan x="387.07" y="200">Names</tspan> <tspan x="383.133" y="219">+ orders</tspan></text><text id="Names,-orders-+-addr" fill="#000" font-family="Roboto-Regular, Roboto" font-size="15" font-weight="normal"><tspan x="790.688" y="120">Names, </tspan> <tspan x="788.468" y="138">orders + </tspan> <tspan x="795.082" y="156">addrs.</tspan></text><path id="Directed-edge" stroke="#3062A8" stroke-linecap="square" stroke-width="2" d="M766,121.5 L766,141.5" transform="translate(766.000000, 131.500000) rotate(-90.000000) translate(-766.000000, -131.500000)"/><g id="Merge" transform="translate(354.377439, 60.000000)"><path id="Directed-edge" fill="#757575" fill-rule="nonzero" d="M127.622561,73 L116.747561,73 L116.747561,147 L95,147 L95,145 L114.747561,145 L114.747561,71 L127.622561,71 L127.622561,65 L141.622561,72 L127.622561,79 L127.622561,73 Z"/><path id="Directed-edge" fill="#757575" fill-rule="nonzero" d="M127.622561,73 L114.747561,73 L114.747561,2 L95.6225614,2 L95.6225614,0 L116.747561,0 L116.747561,71 L127.622561,71 L127.622561,65 L141.622561,72 L127.622561,79 L127.622561,73 Z"/><path id="Line" stroke="#3062A8" stroke-linecap="square" stroke-width="2" d="M10.6225614,-9 L10.6225614,11" transform="translate(10.622561, 1.000000) rotate(-90.000000) translate(-10.622561, -1.000000)"/><path id="Line" stroke="#3062A8" stroke-linecap="square" stroke-width="2" d="M10.6225614,135 L10.6225614,155" transform="translate(10.622561, 145.000000) rotate(-90.000000) translate(-10.622561, -145.000000)"/></g><path id="Directed-edge" fill="#E0E0E0" fill-rule="nonzero" d="M146,61.5 L113,61.5 L113,59.5 L146,59.5 L146,53.5 L160,60.5 L146,67.5 L146,61.5 Z"/><path id="Directed-edge" fill="#E0E0E0" fill-rule="nonzero" d="M146,205.5 L114,205.5 L114,203.5 L146,203.5 L146,197.5 L160,204.5 L146,211.5 L146,205.5 Z"/><g id="Database" transform="translate(0.000000, 9.000000)"><ellipse id="Oval" cx="56.5" cy="83.263" fill="#E0E0E0" rx="56.5" ry="17.842"/><rect id="Rectangle" width="113" height="65.421" x="0" y="17.842" fill="#E0E0E0"/><ellipse id="Oval" cx="56.5" cy="17.842" fill="#EFEFEF" rx="56.5" ry="17.842"/><text id="Database-table" fill="#414141" font-family="Roboto-Regular, Roboto" font-size="18" font-weight="normal"><tspan x="21" y="60">Database </tspan> <tspan x="21" y="81">table</tspan></text></g><g id="Document" transform="translate(1.000000, 161.000000)"><path id="Document-symbol" fill="#E0E0E0" d="M0,0 L0,81.1880544 C5.73926173,85.0626848 15.1689615,87 28.2890992,87 C56.5,87 57.2032971,71.8576229 84.878475,71.8576229 C90.6940962,71.8576229 100.067938,74.9677667 113,81.1880544 L113,0 L0,0 Z"/><text id="Text-file" fill="#414141" font-family="Roboto-Regular, Roboto" font-size="18" font-weight="normal"><tspan x="25" y="43">Text file</tspan></text></g><g id="Legend" transform="translate(1.000000, 278.000000)"><rect id="PTransform-symbol" width="15" height="15" x="0" y="4" fill="#3062A8"/><text id="PTransform" fill="#000" font-family="Roboto-Regular, Roboto" font-size="18" font-weight="normal"><tspan x="22" y="17">PTransform</tspan></text><text id="Aggregation" fill="#000" font-family="Roboto-Regular, Roboto" font-size="18" font-weight="normal"><tspan x="162" y="17">Aggregating PTransform</tspan></text><text id="PCollection" fill="#000" font-family="Roboto-Regular, Roboto" font-size="18" font-weight="normal"><tspan x="22" y="52">PCollection</tspan></text><circle id="PCollection-symbol" cx="7.5" cy="46.5" r="7.5" fill="#FFF" stroke="#757575" stroke-width="2"/><path id="Rectangle" fill="#3062A8" d="M143.364341,5 L154,12.4782609 L143.364341,20 L133,12.5217391 L143.364341,5 Z"/></g></g></svg>