<svg xmlns="http://www.w3.org/2000/svg" xmlns:svg="http://www.w3.org/2000/svg" id="svg2" width="421.51" height="217.11" version="1.1"><defs id="defs28"><marker id="Arrow2Lstart" orient="auto" overflow="visible" refX="0" refY="0"><path id="path4078" fill-rule="evenodd" stroke-linejoin="round" stroke-width=".625" d="M 8.7185878,4.0337352 L -2.2072895,0.016013256 L 8.7185884,-4.0017078 C 6.9730900,-1.6296469 6.9831476,1.6157441 8.7185878,4.0337352 z" transform="scale(1.1) translate(1,0)"/></marker><marker id="Arrow1Lend" orient="auto" overflow="visible" refX="0" refY="0"><path id="path4063" fill-rule="evenodd" stroke="#000" stroke-width="1pt" d="M 0.0,0.0 L 5.0,-5.0 L -12.5,0.0 L 5.0,5.0 L 0.0,0.0 z" transform="scale(0.8) rotate(180) translate(12.5,0)"/></marker><marker id="Arrow2Lend" orient="auto" overflow="visible" refX="0" refY="0"><path id="path3923" fill-rule="evenodd" stroke-linejoin="round" stroke-width=".625" d="M 8.7185878,4.0337352 L -2.2072895,0.016013256 L 8.7185884,-4.0017078 C 6.9730900,-1.6296469 6.9831476,1.6157441 8.7185878,4.0337352 z" transform="scale(1.1) rotate(180) translate(1,0)"/></marker><marker id="Arrow2Lend-1" orient="auto" refX="0" refY="0"><path id="path3823-1" fill-rule="evenodd" stroke-linejoin="round" stroke-width=".625" d="M8.7186,4.0337-2.2073,0.016013,8.7186-4.0017c-1.7455,2.3721-1.7354,5.6175-6E-7,8.0354z" transform="matrix(-1.1,0,0,-1.1,-1.1,0)"/></marker></defs><metadata id="metadata7"/><g id="g5315"><g id="g3135" stroke-dasharray="none" stroke-miterlimit="4" stroke-width=".531" transform="matrix(0.88811359,0,0,1,-3.8563836,-770.72906)"><rect id="rect2987" width="147.47" height="34.286" x="49.663" y="876.55" fill="#f4a460" stroke="#000" ry="11.782"/></g><path id="path12814" fill="none" stroke="#000" stroke-linecap="butt" stroke-linejoin="miter" stroke-width="1" marker-end="url(#Arrow2Lend)" d="m 103.79,140.11 0.18839,60.668"/><path id="path12814-7" fill="none" stroke="#000" stroke-linecap="butt" stroke-linejoin="miter" stroke-width="1" marker-end="url(#Arrow2Lend)" marker-mid="none" d="m 103.17,15.5 0.18366,89.157"/><g id="g4404"><text id="text3163" x="231.899" y="152.867" fill="#000" font-family="Sans" font-size="20" font-style="normal" font-weight="normal" letter-spacing="0" line-height="125%" word-spacing="0" xml:space="preserve"><tspan id="tspan3165" x="231.899" y="152.867" font-size="12">Bundle A (five elements)</tspan></text><text id="text3163-1" x="231.817" y="173.165" fill="#000" font-family="Sans" font-size="20" font-style="normal" font-weight="normal" letter-spacing="0" line-height="125%" word-spacing="0" xml:space="preserve"><tspan id="tspan3165-8" x="231.817" y="173.165" font-size="12">Bundle B (four elements)</tspan></text><rect id="rect3025-9" width="21.511" height="14.365" x="203.73" y="141.93" fill="#d8bfd8" stroke="#000" stroke-dasharray="none" stroke-miterlimit="4" stroke-width=".5"/><rect id="rect3025-9-3" width="21.511" height="14.365" x="204.03" y="162.32" fill="#add8e6" stroke="#000" stroke-dasharray="none" stroke-miterlimit="4" stroke-width=".5"/></g><g id="g4412"><text id="text3153" x="180.632" y="32.067" fill="#000" font-family="Sans" font-size="20" font-style="normal" font-weight="normal" letter-spacing="0" line-height="125%" word-spacing="0" xml:space="preserve"><tspan id="tspan3155" x="180.632" y="32.067" font-size="16">Input collection:</tspan></text><g id="g18259" transform="matrix(1.0730169,0,0,1,-9.331575,-27.774711)"><rect id="rect3161" width="5" height="51.429" x="243.12" y="66.479" fill="#1c2422"/><rect id="rect3025-4" width="115.97" height="36.368" x="127.82" y="74.242" fill="#d8bfd8" stroke="#000" stroke-dasharray="none" stroke-miterlimit="4" stroke-width="1.01"/><rect id="rect3025-0" width="23.053" height="36.656" x="127.66" y="74.098" fill="#d8bfd8" stroke="#000" stroke-dasharray="none" stroke-miterlimit="4" stroke-width=".808"/><rect id="rect3025-0-0" width="23.053" height="36.656" x="174.03" y="74.098" fill="#d8bfd8" stroke="#000" stroke-dasharray="none" stroke-miterlimit="4" stroke-width=".808"/><rect id="rect3025-0-4" width="23.053" height="36.656" x="150.85" y="74.098" fill="#d8bfd8" stroke="#000" stroke-dasharray="none" stroke-miterlimit="4" stroke-width=".808"/><rect id="rect3025-0-44" width="23.053" height="36.656" x="220.41" y="74.098" fill="#d8bfd8" stroke="#000" stroke-dasharray="none" stroke-miterlimit="4" stroke-width=".808"/><rect id="rect3025-0-47" width="23.053" height="36.656" x="197.22" y="74.098" fill="#d8bfd8" stroke="#000" stroke-dasharray="none" stroke-miterlimit="4" stroke-width=".808"/><g id="g18250" fill="#add8e6" stroke="#000" stroke-dasharray="none" stroke-miterlimit="4" stroke-width=".772" transform="matrix(1.1135475,0,0,0.99880924,127.32861,191.51183)"><g id="g18243" transform="translate(-157.70925,-188.54625)"><g id="g18240" fill="#add8e6" stroke="#000" stroke-dasharray="none" stroke-miterlimit="4" stroke-width=".772"><rect id="rect3025-5-11" width="82.466" height="36.539" x="266.04" y="71.073" fill="#add8e6" stroke="#000" stroke-dasharray="none" stroke-miterlimit="4" stroke-width=".772"/></g></g><rect id="rect3025-0-47-6" width="21.024" height="36.695" x="108.43" y="-117.55"/><rect id="rect3025-0-47-3" width="21.024" height="36.695" x="149.4" y="-117.55"/><rect id="rect3025-0-47-1" width="21.024" height="36.695" x="128.7" y="-117.55"/><rect id="rect3025-0-47-7" width="21.024" height="36.695" x="170.47" y="-117.55"/></g></g></g><text id="text9065" x="76.726" y="127.856" fill="#000" font-family="Sans" font-size="40" font-style="normal" font-weight="normal" letter-spacing="0" line-height="125%" word-spacing="0" xml:space="preserve" style="line-height:125%"><tspan id="tspan9067" x="76.726" y="127.856" font-size="16">ParDo1</tspan></text></g></svg>