<svg xmlns="http://www.w3.org/2000/svg" id="svg2" width="601.9" height="248.27" version="1.1"><metadata id="metadata7"/><path id="path3207-9" fill="none" stroke="#000" stroke-linecap="butt" stroke-linejoin="miter" stroke-width=".797" d="m65.98,68.662,0,151.23h360.38"/><text id="text7100" x="67.672" y="56.552" fill="#000" font-family="Sans" font-size="40" font-style="normal" font-weight="normal" letter-spacing="0" line-height="125%" word-spacing="0" xml:space="preserve"><tspan style="text-align:center" id="tspan7104" x="67.672" y="56.552" font-size="16" text-anchor="middle">Worker</tspan></text><text id="text6762" x="478.545" y="213.042" fill="#000" font-family="Sans" font-size="16" font-style="normal" font-weight="normal" letter-spacing="0" line-height="125%" word-spacing="0" xml:space="preserve"><tspan style="text-align:center" id="tspan6764" x="478.545" y="213.042" text-anchor="middle">Processing</tspan><tspan style="text-align:center" id="tspan6766" x="478.545" y="233.042" text-anchor="middle">Time</tspan></text><text id="text9219" x="378.461" y="32.499" fill="#000" font-family="Sans" font-size="40" font-style="normal" font-weight="normal" letter-spacing="0" line-height="125%" word-spacing="0" xml:space="preserve"><tspan id="tspan9221" x="378.461" y="32.499" font-size="12">Bundle A</tspan></text><rect id="rect3025-7-19-4-92" width="27.454" height="22.065" x="340.93" y="41.803" fill="#add8e6" stroke="#000" stroke-dasharray="none" stroke-miterlimit="4" stroke-width=".5"/><text id="text9219-0" x="378.461" y="56.003" fill="#000" font-family="Sans" font-size="40" font-style="normal" font-weight="normal" letter-spacing="0" line-height="125%" word-spacing="0" xml:space="preserve"><tspan id="tspan9221-6" x="378.461" y="56.003" font-size="12">Bundle B</tspan></text><text id="text7065" x="44.73" y="140.701" fill="#000" font-family="Sans" font-size="40" font-style="normal" font-weight="normal" letter-spacing="0" line-height="125%" word-spacing="0" xml:space="preserve"><tspan id="tspan7067" x="44.73" y="140.701" font-size="14">2</tspan></text><text id="text7065-4" x="45.072" y="193.452" fill="#000" font-family="Sans" font-size="40" font-style="normal" font-weight="normal" letter-spacing="0" line-height="125%" word-spacing="0" xml:space="preserve"><tspan id="tspan7067-7" x="45.072" y="193.452" font-size="14">1</tspan></text><path id="path6657-3-5-62-2-5" fill="none" stroke="#000" stroke-linecap="butt" stroke-linejoin="miter" stroke-width="1.099" d="m59.774,134.81h11.088"/><path id="path6657-3-5-62-2-5-1" fill="none" stroke="#000" stroke-linecap="butt" stroke-linejoin="miter" stroke-width="1.099" d="m60.427,187.7h11.088"/><text id="text9219-0-2" x="378.796" y="83.93" fill="#000" font-family="Sans" font-size="40" font-style="normal" font-weight="normal" letter-spacing="0" line-height="125%" word-spacing="0" xml:space="preserve"><tspan id="tspan9221-6-7" x="378.796" y="83.93" font-size="12">Element processing successful</tspan></text><text id="text9219-0-2-1" x="378.263" y="104.478" fill="#000" font-family="Sans" font-size="40" font-style="normal" font-weight="normal" letter-spacing="0" line-height="125%" word-spacing="0" xml:space="preserve"><tspan id="tspan9221-6-7-0" x="378.263" y="104.478" font-size="12">Element awaiting processing</tspan></text><text id="text9219-0-2-6" x="378.263" y="124.718" fill="#000" font-family="Sans" font-size="40" font-style="normal" font-weight="normal" letter-spacing="0" line-height="125%" word-spacing="0" xml:space="preserve"><tspan id="tspan9221-6-7-1" x="378.263" y="124.718" font-size="12">Element processing failed</tspan></text><path id="path3029-9-9-5" fill="#32cd32" stroke="#000" stroke-dasharray="none" stroke-miterlimit="4" stroke-width=".5" d="m359.12,79.622c0,2.3669-1.9188,4.2857-4.2857,4.2857s-4.2857-1.9188-4.2857-4.2857c0.001-2.367,1.919-4.286,4.286-4.286,2.3669,0,4.2857,1.9188,4.2857,4.2857z"/><path id="path3029-06-64-9" fill="#FF0" stroke="#000" stroke-dasharray="none" stroke-miterlimit="4" stroke-width=".5" d="m358.47,99.862c0,2.3669-1.9188,4.2857-4.2857,4.2857s-4.2857-1.9188-4.2857-4.2857c0.001-2.367,1.919-4.286,4.286-4.286,2.3669,0,4.2857,1.9188,4.2857,4.2857z"/><rect id="rect3025-7-19-4-92-2" width="27.454" height="22.065" x="340.8" y="15.25" fill="#d8bfd8" stroke="#000" stroke-dasharray="none" stroke-miterlimit="4" stroke-width=".5"/><rect id="rect3025-0" width="27.716" height="36.608" x="82.188" y="168.59" fill="#d8bfd8" stroke="#000" stroke-dasharray="none" stroke-miterlimit="4" stroke-width=".886"/><rect id="rect3025-0-0" width="27.716" height="36.608" x="137.94" y="168.59" fill="#d8bfd8" stroke="#000" stroke-dasharray="none" stroke-miterlimit="4" stroke-width=".886"/><rect id="rect3025-0-4" width="27.716" height="36.608" x="110.06" y="168.59" fill="#d8bfd8" stroke="#000" stroke-dasharray="none" stroke-miterlimit="4" stroke-width=".886"/><rect id="rect3025-0-44" width="27.716" height="36.608" x="193.69" y="168.59" fill="#d8bfd8" stroke="#000" stroke-dasharray="none" stroke-miterlimit="4" stroke-width=".886"/><rect id="rect3025-0-47" width="27.716" height="36.608" x="165.82" y="168.59" fill="#d8bfd8" stroke="#000" stroke-dasharray="none" stroke-miterlimit="4" stroke-width=".886"/><rect id="rect3025-0-47-6" width="27.589" height="36.612" x="232.45" y="168.59" fill="#add8e6" stroke="#000" stroke-dasharray="none" stroke-miterlimit="4" stroke-width=".884"/><rect id="rect3025-0-47-3" width="27.589" height="36.612" x="286.21" y="168.59" fill="#add8e6" stroke="#000" stroke-dasharray="none" stroke-miterlimit="4" stroke-width=".884"/><rect id="rect3025-0-47-1" width="27.589" height="36.612" x="259.04" y="168.59" fill="#add8e6" stroke="#000" stroke-dasharray="none" stroke-miterlimit="4" stroke-width=".884"/><rect id="rect3025-0-47-7" width="27.589" height="36.612" x="313.86" y="168.59" fill="#add8e6" stroke="#000" stroke-dasharray="none" stroke-miterlimit="4" stroke-width=".884"/><rect id="rect3025-0-47-6-1" width="27.589" height="36.612" x="100.23" y="117.01" fill="#add8e6" stroke="#000" stroke-dasharray="none" stroke-miterlimit="4" stroke-width=".884"/><rect id="rect3025-0-47-3-7" width="27.589" height="36.612" x="154" y="117.01" fill="#add8e6" stroke="#000" stroke-dasharray="none" stroke-miterlimit="4" stroke-width=".884"/><rect id="rect3025-0-47-1-8" width="27.589" height="36.612" x="126.83" y="117.01" fill="#add8e6" stroke="#000" stroke-dasharray="none" stroke-miterlimit="4" stroke-width=".884"/><rect id="rect3025-0-47-7-5" width="27.589" height="36.612" x="181.65" y="117.01" fill="#add8e6" stroke="#000" stroke-dasharray="none" stroke-miterlimit="4" stroke-width=".884"/><path id="path3029-06-64-9-3" fill="#FF0" stroke="#000" stroke-dasharray="none" stroke-miterlimit="4" stroke-width=".5" d="m198.85,135.97c0,2.3669-1.9188,4.2857-4.2857,4.2857s-4.2857-1.9188-4.2857-4.2857c0.001-2.367,1.919-4.286,4.286-4.286,2.3669,0,4.2857,1.9188,4.2857,4.2857z"/><path id="path3029-9-9-5-8" fill="#32cd32" stroke="#000" stroke-dasharray="none" stroke-miterlimit="4" stroke-width=".5" d="m117.89,135.97c0,2.3669-1.9188,4.2857-4.2857,4.2857s-4.2857-1.9188-4.2857-4.2857c0.001-2.367,1.919-4.286,4.286-4.286,2.3669,0,4.2857,1.9188,4.2857,4.2857z"/><path id="path3029-9-9-5-6" fill="#32cd32" stroke="#000" stroke-dasharray="none" stroke-miterlimit="4" stroke-width=".5" d="m144.01,135.97c0,2.3669-1.9188,4.2857-4.2857,4.2857s-4.2857-1.9188-4.2857-4.2857c0.001-2.367,1.919-4.286,4.286-4.286,2.3669,0,4.2857,1.9188,4.2857,4.2857z"/><path id="path3029-9-9-5-0" fill="#32cd32" stroke="#000" stroke-dasharray="none" stroke-miterlimit="4" stroke-width=".5" d="m99.609,187.55c0,2.3669-1.9188,4.2857-4.2857,4.2857s-4.2857-1.9188-4.2857-4.2857c0.001-2.367,1.919-4.286,4.286-4.286,2.3669,0,4.2857,1.9188,4.2857,4.2857z"/><path id="path3029-9-9-5-4" fill="#32cd32" stroke="#000" stroke-dasharray="none" stroke-miterlimit="4" stroke-width=".5" d="m156.41,186.9c0,2.3669-1.9188,4.2857-4.2857,4.2857s-4.2857-1.9188-4.2857-4.2857c0.001-2.367,1.919-4.286,4.286-4.286,2.3669,0,4.2857,1.9188,4.2857,4.2857z"/><path id="path3029-9-9-5-88" fill="#32cd32" stroke="#000" stroke-dasharray="none" stroke-miterlimit="4" stroke-width=".5" d="m127.68,186.9c0,2.3669-1.9188,4.2857-4.2857,4.2857s-4.2857-1.9188-4.2857-4.2857c0.001-2.367,1.919-4.286,4.286-4.286,2.3669,0,4.2857,1.9188,4.2857,4.2857z"/><path id="path3029-9-9-5-89" fill="#32cd32" stroke="#000" stroke-dasharray="none" stroke-miterlimit="4" stroke-width=".5" d="m183.83,187.55c0,2.3669-1.9188,4.2857-4.2857,4.2857s-4.2857-1.9188-4.2857-4.2857c0.001-2.367,1.919-4.286,4.286-4.286,2.3669,0,4.2857,1.9188,4.2857,4.2857z"/><path id="path3029-9-9-5-7" fill="#32cd32" stroke="#000" stroke-dasharray="none" stroke-miterlimit="4" stroke-width=".5" d="m211.91,187.55c0,2.3669-1.9188,4.2857-4.2857,4.2857s-4.2857-1.9188-4.2857-4.2857c0.001-2.367,1.919-4.286,4.286-4.286,2.3669,0,4.2857,1.9188,4.2857,4.2857z"/><path id="path3029-9-9-5-76" fill="#32cd32" stroke="#000" stroke-dasharray="none" stroke-miterlimit="4" stroke-width=".5" d="m249.12,187.55c0,2.3669-1.9188,4.2857-4.2857,4.2857s-4.2857-1.9188-4.2857-4.2857c0.001-2.367,1.919-4.286,4.286-4.286,2.3669,0,4.2857,1.9188,4.2857,4.2857z"/><path id="path3029-9-9-5-43" fill="#32cd32" stroke="#000" stroke-dasharray="none" stroke-miterlimit="4" stroke-width=".5" d="m276.54,187.55c0,2.3669-1.9188,4.2857-4.2857,4.2857s-4.2857-1.9188-4.2857-4.2857c0.001-2.367,1.919-4.286,4.286-4.286,2.3669,0,4.2857,1.9188,4.2857,4.2857z"/><path id="path3029-9-9-5-03" fill="#32cd32" stroke="#000" stroke-dasharray="none" stroke-miterlimit="4" stroke-width=".5" d="m305.27,186.9c0,2.3669-1.9188,4.2857-4.2857,4.2857s-4.2857-1.9188-4.2857-4.2857c0.001-2.367,1.919-4.286,4.286-4.286,2.3669,0,4.2857,1.9188,4.2857,4.2857z"/><path id="path3029-9-9-5-09" fill="#32cd32" stroke="#000" stroke-dasharray="none" stroke-miterlimit="4" stroke-width=".5" d="m332.04,186.9c0,2.3669-1.9188,4.2857-4.2857,4.2857s-4.2857-1.9188-4.2857-4.2857c0.001-2.367,1.919-4.286,4.286-4.286,2.3669,0,4.2857,1.9188,4.2857,4.2857z"/><text id="text18024-8" x="359.768" y="121.746" fill="#000" stroke="#000" stroke-dasharray="none" stroke-miterlimit="4" stroke-width=".183" font-family="Sans" font-size="36.69" font-style="normal" font-weight="normal" letter-spacing="0" line-height="125%" transform="scale(0.97018693,1.0307292)" word-spacing="0" xml:space="preserve"><tspan id="tspan18026-9" x="359.768" y="121.746" fill="red" stroke="#000" stroke-dasharray="none" stroke-miterlimit="4" stroke-width=".183" font-size="14.676" font-weight="bold">X</tspan></text><text id="text18024-8-8" x="166.628" y="137.265" fill="#000" stroke="#000" stroke-dasharray="none" stroke-miterlimit="4" stroke-width=".183" font-family="Sans" font-size="36.69" font-style="normal" font-weight="normal" letter-spacing="0" line-height="125%" transform="scale(0.97018693,1.0307292)" word-spacing="0" xml:space="preserve"><tspan id="tspan18026-9-0" x="166.628" y="137.265" fill="red" stroke="#000" stroke-dasharray="none" stroke-miterlimit="4" stroke-width=".183" font-size="14.676" font-weight="bold">X</tspan></text></svg>