<svg xmlns="http://www.w3.org/2000/svg" id="svg2" width="584.79" height="221.19" version="1.1"><metadata id="metadata7"/><path id="path3207" fill="none" stroke="#000" stroke-linecap="butt" stroke-linejoin="miter" stroke-width=".803" d="m65.679,40.835,0,153.56h360.38"/><g id="g3006" transform="translate(15.777413,-820.77153)"><text id="text3163" x="422.172" y="854.522" fill="#000" font-family="Sans" font-size="20" font-style="normal" font-weight="normal" letter-spacing="0" line-height="125%" word-spacing="0" xml:space="preserve"><tspan id="tspan3165" x="422.172" y="854.522" font-size="12">Bundle A element</tspan></text><text id="text3163-1" x="421.5" y="882.886" fill="#000" font-family="Sans" font-size="20" font-style="normal" font-weight="normal" letter-spacing="0" line-height="125%" word-spacing="0" xml:space="preserve"><tspan id="tspan3165-8" x="421.5" y="882.886" font-size="12">Bundle B element</tspan></text><path id="path6657-3" fill="none" stroke="#000" stroke-linecap="butt" stroke-linejoin="miter" stroke-width="1.099" d="M44.308,976.84h11.088"/><path id="path6657-3-5" fill="none" stroke="#000" stroke-linecap="butt" stroke-linejoin="miter" stroke-width="1.099" d="M44.777,920.73h11.088"/><text id="text6695" x="29.374" y="981.909" fill="#000" font-family="Sans" font-size="40" font-style="normal" font-weight="normal" letter-spacing="0" line-height="125%" word-spacing="0" xml:space="preserve"><tspan id="tspan6697" x="29.374" y="981.909" font-size="14">1</tspan></text><text id="text6699" x="30.668" y="926.84" fill="#000" font-family="Sans" font-size="40" font-style="normal" font-weight="normal" letter-spacing="0" line-height="125%" word-spacing="0" xml:space="preserve"><tspan id="tspan6701" x="30.668" y="926.84" font-size="14">2</tspan></text><rect id="rect3025-7-1-9-2" width="33.113" height="20.191" x="377.83" y="868.96" fill="#add8e6" stroke="#000"/><g id="g18259" stroke="#000" stroke-dasharray="none" stroke-miterlimit="4" transform="matrix(1.0730169,0,0,1,-86.480557,643.26922)"><g id="g18357" fill="#d8bfd8" transform="matrix(2.5823283,0,0,1,-198.50272,244.2816)"><rect id="rect3025-4" width="104.74" height="36.41" x="131.48" y="73.34" stroke-width=".419"/><rect id="rect3025-0" width="21.024" height="36.695" x="131.34" y="73.198" stroke-width=".421"/><rect id="rect3025-0-0" width="21.024" height="36.695" x="173.63" y="73.198" stroke-width=".421"/><rect id="rect3025-0-4" width="21.024" height="36.695" x="152.48" y="73.198" stroke-width=".421"/><rect id="rect3025-0-44" width="21.024" height="36.695" x="215.66" y="73.198" stroke-width=".421"/><rect id="rect3025-0-47" width="21.024" height="36.695" x="194.77" y="73.198" stroke-width=".421"/></g><g id="g18365" fill="#add8e6" stroke-width=".416" transform="matrix(2.6416425,0,0,1,-948.11581,183.56421)"><g id="g18250" fill="#add8e6" stroke="#000" stroke-dasharray="none" stroke-miterlimit="4" stroke-width=".416" transform="translate(309.37641,193.57296)"><g id="g18243" transform="translate(-157.70925,-188.54625)"><g id="g18240" fill="#add8e6" stroke="#000" stroke-dasharray="none" stroke-miterlimit="4" stroke-width=".416"><rect id="rect3025-5-11" width="82.466" height="36.539" x="266.04" y="71.073" fill="#add8e6" stroke="#000" stroke-dasharray="none" stroke-miterlimit="4" stroke-width=".416"/></g></g><rect id="rect3025-0-47-6" width="21.024" height="36.695" x="108.43" y="-117.55"/><rect id="rect3025-0-47-3" width="21.024" height="36.695" x="149.4" y="-117.55"/><rect id="rect3025-0-47-1" width="21.024" height="36.695" x="128.7" y="-117.55"/><rect id="rect3025-0-47-7" width="21.024" height="36.695" x="170.1" y="-117.55"/></g></g></g><rect id="rect3025-7-1-9-2-5" width="33.113" height="20.191" x="377.86" y="839.83" fill="#d8bfd8" stroke="#000"/></g><text id="text6762" x="477.86" y="185.966" fill="#000" font-family="Sans" font-size="16" font-style="normal" font-weight="normal" letter-spacing="0" line-height="125%" word-spacing="0" xml:space="preserve"><tspan style="text-align:center" id="tspan6764" x="477.86" y="185.966" text-anchor="middle">Processing</tspan><tspan style="text-align:center" id="tspan6766" x="477.86" y="205.966" text-anchor="middle">Time</tspan></text><text id="text7100" x="67.672" y="27.156" fill="#000" font-family="Sans" font-size="40" font-style="normal" font-weight="normal" letter-spacing="0" line-height="125%" word-spacing="0" xml:space="preserve"><tspan style="text-align:center" id="tspan7104" x="67.672" y="27.156" font-size="16" text-anchor="middle">Worker</tspan></text></svg>