<svg xmlns="http://www.w3.org/2000/svg" xmlns:xlink="http://www.w3.org/1999/xlink" id="Layer_1" x="0" y="0" enable-background="new 334 84 1280 625" version="1.1" viewBox="334 84 1280 625" xml:space="preserve"><style type="text/css">.st0{fill:url(#Rectangle_3_)}.st1{fill:url(#Rectangle_4_);enable-background:new}.st1,.st2{opacity:.418}.st2,.st3,.st4{enable-background:new}.st2{fill:url(#Rectangle_5_)}.st3,.st4{opacity:.3426;fill:url(#SVGID_1_)}.st4{fill:url(#SVGID_2_)}</style><title>Group 6</title><desc>Created with Sketch.</desc><g id="Group-6"><linearGradient id="Rectangle_3_" x1="2670.212" x2="2671.135" y1="1.013" y2=".09" gradientTransform="matrix(1280 0 0 625 -3417488 4)" gradientUnits="userSpaceOnUse"><stop offset="0" stop-color="#FBA43B"/><stop offset="1" stop-color="#F76B1C"/></linearGradient><polygon id="Rectangle" points="334 84 1614 84 1614 613 334 613" class="st0"/><linearGradient id="Rectangle_4_" x1="2670.324" x2="2671.023" y1="1.169" y2=".469" gradientTransform="matrix(1280 0 0 326 -3417488 303)" gradientUnits="userSpaceOnUse"><stop offset="0" stop-color="#FBDA61" stop-opacity=".2"/><stop offset="1" stop-color="#F76B1C" stop-opacity="0"/></linearGradient><polygon id="Rectangle_2_" points="334 505 1614 505 1614 635 334 635" class="st1"/><linearGradient id="Rectangle_5_" x1="2670.482" x2="2671.014" y1="1.239" y2=".706" gradientTransform="matrix(1280 0 0 326 -3417488 303)" gradientUnits="userSpaceOnUse"><stop offset="0" stop-color="#F76B1C" stop-opacity="0"/><stop offset="1" stop-color="#F9B248" stop-opacity=".638"/></linearGradient><polygon id="Rectangle_1_" points="525 585 1614 585 1614 655 525 655" class="st2"/><linearGradient id="SVGID_1_" x1="889.575" x2="1415.425" y1="451.575" y2="-74.275" gradientTransform="matrix(1 0 0 -1 0 796)" gradientUnits="userSpaceOnUse"><stop offset="0" stop-color="#FBDA61" stop-opacity="0"/><stop offset="1" stop-color="#F76B1C"/></linearGradient><polygon points="1614 541.7 691 543 691 673 1614 671.7" class="st3"/><linearGradient id="SVGID_2_" x1="621.8" x2="1326.2" y1="615.2" y2="-89.2" gradientTransform="matrix(1 0 0 -1 0 796)" gradientUnits="userSpaceOnUse"><stop offset="0" stop-color="#FBDA61" stop-opacity="0"/><stop offset="1" stop-color="#F76B1C"/></linearGradient><polygon points="1614 467.4 334 468.6 334 598.6 1614 597.4" class="st4"/></g></svg>