<svg xmlns="http://www.w3.org/2000/svg" xmlns:xlink="http://www.w3.org/1999/xlink" width="1158" height="227" version="1.1" viewBox="0 0 1158 227"><title>GroupByKey and ParDo without windowing, on a bounded collection.</title><g id="unwindowed-pipeline-bounded" transform="translate(1.000000, 0.000000)"><g id="Legend" transform="translate(0.000000, 172.000000)"><rect id="PTransform-symbol" width="15" height="15" x="0" y="4" fill="#3062A8"/><text id="PTransform" fill="#000" font-family="Roboto-Regular, Roboto" font-size="18" font-weight="normal"><tspan x="22" y="17">PTransform</tspan></text><text id="Aggregation" fill="#000" font-family="Roboto-Regular, Roboto" font-size="18" font-weight="normal"><tspan x="162" y="17">Aggregating PTransform</tspan></text><text id="PCollection" fill="#000" font-family="Roboto-Regular, Roboto" font-size="18" font-weight="normal"><tspan x="22" y="52">PCollection</tspan></text><circle id="PCollection-symbol" cx="7.5" cy="46.5" r="7.5" fill="#FFF" stroke="#757575" stroke-width="2"/><path id="Rectangle" fill="#3062A8" d="M143.364341,5 L154,12.4782609 L143.364341,20 L133,12.5217391 L143.364341,5 Z"/></g><path id="Directed-edge" stroke="#3062A8" stroke-linecap="square" stroke-width="2" d="M1072.5,80 L1072.5,100" transform="translate(1072.500000, 90.000000) rotate(-90.000000) translate(-1072.500000, -90.000000)"/><g id="PCollection" transform="translate(1084.500000, 55.000000)"><circle id="PCollection-symbol" cx="35" cy="35" r="35" fill="#FFF" stroke="#757575" stroke-width="2"/><text id="Rows-after-ParDo" fill="#000" font-family="Roboto-Regular, Roboto" font-size="15" font-weight="normal"><tspan x="17.102" y="21">Rows </tspan> <tspan x="19.855" y="39">after </tspan> <tspan x="14.956" y="57">ParDo</tspan></text></g><g id="PTransform" transform="translate(868.000000, 28.000000)"><rect id="PTransform-symbol" width="194" height="124" x="0" y="0" fill="#3062A8"/><text id="ParDo" fill="#FFF" font-family="Roboto-Regular, Roboto" font-size="24" font-weight="normal"><tspan x="64.5" y="70">ParDo</tspan></text></g><g id="Directed-edge" transform="translate(741.550000, 90.765000)"><path id="Line" stroke="#3062A8" stroke-linecap="square" stroke-width="2" d="M10.5,-9 L10.5,11" transform="translate(10.500000, 1.000000) rotate(-90.000000) translate(-10.500000, -1.000000)"/><path id="Line" fill="#757575" fill-rule="nonzero" d="M112.45,2.235 L83.45,2.235 L83.45,0.235 L112.45,0.235 L112.45,-5.765 L126.45,1.235 L112.45,8.235 L112.45,2.235 Z"/></g><g id="PCollection" transform="translate(763.000000, 61.000000)"><circle id="PCollection-symbol" cx="30.953" cy="31.221" r="30.53" fill="#FFF" stroke="#757575" stroke-width="2"/><text id="Rows-by-key" fill="#000" font-family="Roboto-Regular, Roboto" font-size="15" font-weight="normal"><tspan x="12.617" y="27">Rows </tspan> <tspan x="10.079" y="45">by key</tspan></text></g><g id="PTransform" transform="translate(482.000000, 0.000000)"><polygon id="Aggregation-PTransform-symbol" fill="#3062A8" points="128.814 0 261 91.733 128.814 184 0 92.267"/><text id="GroupByKey" fill="#FFF" font-family="Roboto-Regular, Roboto" font-size="23" font-weight="normal"><tspan x="68.581" y="99">GroupByKey</tspan></text></g><g id="Directed-edge" transform="translate(353.000000, 90.500000)"><path id="Line" stroke="#3062A8" stroke-linecap="square" stroke-width="2" d="M11,-8.5 L11,11.5" transform="translate(11.000000, 1.500000) rotate(-90.000000) translate(-11.000000, -1.500000)"/><path id="Path-2" fill="#757575" fill-rule="nonzero" d="M115,2.5 L83,2.5 L83,0.5 L115,0.5 L115,-5.5 L129,1.5 L115,8.5 L115,2.5 Z"/></g><g id="PCollection" transform="translate(374.000000, 61.000000)"><circle id="PCollection-symbol" cx="31" cy="31" r="31" fill="#FFF" stroke="#757575" stroke-width="2"/><text id="Table-rows" fill="#000" font-family="Roboto-Regular, Roboto" font-size="16" font-weight="normal"><tspan x="11.207" y="28">Table </tspan> <tspan x="13.594" y="47">rows</tspan></text></g><g id="PTransform" transform="translate(160.000000, 30.000000)"><rect id="PTransform-symbol" width="194" height="124" x="0" y="0" fill="#3062A8"/><text id="Read-from-Kafka-IO" fill="#FFF" font-family="Roboto-Regular, Roboto" font-size="24" font-weight="normal"><tspan x="44" y="55">Read from </tspan> <tspan x="44" y="83">Kafka IO</tspan></text></g><path id="Directed-edge" fill="#E0E0E0" fill-rule="nonzero" d="M146,92 L113,92 L113,90 L146,90 L146,84 L160,91 L146,98 L146,92 Z"/><g id="Database" transform="translate(0.000000, 40.000000)"><g id="Database-symbol" transform="translate(0.000000, 0.000000)"><ellipse id="Oval" cx="56.5" cy="83.263" fill="#E0E0E0" rx="56.5" ry="17.842"/><rect id="Rectangle" width="113" height="65.421" x="0" y="17.842" fill="#E0E0E0"/><ellipse id="Oval" cx="56.5" cy="17.842" fill="#EFEFEF" rx="56.5" ry="17.842"/></g><text id="Database-table" fill="#414141" font-family="Roboto-Regular, Roboto" font-size="18" font-weight="normal"><tspan x="18" y="61">Database </tspan> <tspan x="18" y="82">table</tspan></text></g></g></svg>